<?xml version="1.0" encoding="UTF-8"?>
<svg xmlns="http://www.w3.org/2000/svg" width="650" height="575" viewBox="0 0 650 575" role="img" aria-labelledby="title desc">
  <title id="title">BAIG Advisory icon</title>
  <desc id="desc">Vector SVG recreation of the BAIG Advisory logo with transparent background.</desc>
  <defs>
    <linearGradient id="silverGradient" x1="0" y1="0" x2="0" y2="1">
      <stop offset="0%" stop-color="#FFFFFF"/>
      <stop offset="28%" stop-color="#D7DBE2"/>
      <stop offset="52%" stop-color="#F4F5F7"/>
      <stop offset="74%" stop-color="#B9BFC8"/>
      <stop offset="100%" stop-color="#8D96A4"/>
    </linearGradient>
  </defs>
  <path d="M 73.0 8.0 L 73.0 467.0 L 80.0 462.0 L 88.0 454.0 L 95.0 449.0 L 129.0 419.0 L 129.0 281.0 L 130.0 280.0 L 259.0 280.0 L 260.0 279.0 L 276.0 280.0 L 277.0 279.0 L 284.0 279.0 L 316.0 250.0 L 325.0 243.0 L 334.0 234.0 L 335.0 234.0 L 345.0 224.0 L 346.0 224.0 L 346.0 223.0 L 130.0 223.0 L 129.0 222.0 L 129.0 66.0 L 130.0 65.0 L 149.0 65.0 L 150.0 66.0 L 160.0 66.0 L 161.0 65.0 L 182.0 65.0 L 183.0 66.0 L 195.0 66.0 L 196.0 65.0 L 200.0 65.0 L 201.0 66.0 L 360.0 66.0 L 361.0 67.0 L 369.0 68.0 L 389.0 76.0 L 397.0 81.0 L 406.0 89.0 L 409.0 87.0 L 412.0 89.0 L 413.0 92.0 L 411.0 93.0 L 411.0 94.0 L 420.0 105.0 L 423.0 106.0 L 423.0 110.0 L 425.0 113.0 L 428.0 122.0 L 429.0 131.0 L 430.0 132.0 L 430.0 156.0 L 429.0 157.0 L 429.0 162.0 L 424.0 177.0 L 422.0 179.0 L 416.0 190.0 L 410.0 198.0 L 398.0 210.0 L 398.0 211.0 L 361.0 248.0 L 360.0 248.0 L 297.0 305.0 L 289.0 311.0 L 280.0 320.0 L 272.0 326.0 L 263.0 335.0 L 262.0 335.0 L 195.0 395.0 L 194.0 395.0 L 151.0 435.0 L 141.0 443.0 L 119.0 464.0 L 118.0 464.0 L 43.0 533.0 L 42.0 533.0 L 22.0 552.0 L 21.0 552.0 L 10.0 563.0 L 8.0 564.0 L 9.0 566.0 L 142.0 566.0 L 353.0 354.0 L 353.0 353.0 L 331.0 353.0 L 330.0 350.0 L 373.0 312.0 L 381.0 306.0 L 398.0 290.0 L 406.0 284.0 L 410.0 279.0 L 411.0 279.0 L 417.0 287.0 L 416.0 290.0 L 426.0 302.0 L 432.0 312.0 L 439.0 320.0 L 443.0 327.0 L 448.0 333.0 L 451.0 333.0 L 453.0 336.0 L 453.0 340.0 L 459.0 348.0 L 461.0 349.0 L 461.0 351.0 L 463.0 352.0 L 466.0 358.0 L 487.0 385.0 L 505.0 411.0 L 507.0 412.0 L 507.0 414.0 L 513.0 423.0 L 531.0 446.0 L 536.0 455.0 L 543.0 463.0 L 545.0 467.0 L 551.0 474.0 L 553.0 478.0 L 570.0 501.0 L 573.0 501.0 L 574.0 502.0 L 578.0 502.0 L 579.0 501.0 L 586.0 501.0 L 587.0 502.0 L 635.0 502.0 L 636.0 501.0 L 641.0 501.0 L 635.0 491.0 L 623.0 476.0 L 621.0 472.0 L 590.0 431.0 L 588.0 427.0 L 571.0 405.0 L 561.0 390.0 L 549.0 375.0 L 542.0 364.0 L 533.0 353.0 L 531.0 349.0 L 506.0 316.0 L 499.0 305.0 L 490.0 294.0 L 486.0 287.0 L 480.0 280.0 L 478.0 276.0 L 450.0 238.0 L 452.0 234.0 L 459.0 226.0 L 471.0 208.0 L 480.0 188.0 L 482.0 182.0 L 482.0 179.0 L 483.0 178.0 L 483.0 175.0 L 484.0 174.0 L 484.0 171.0 L 485.0 170.0 L 486.0 158.0 L 487.0 157.0 L 487.0 128.0 L 486.0 127.0 L 486.0 120.0 L 485.0 119.0 L 485.0 115.0 L 484.0 114.0 L 482.0 103.0 L 479.0 94.0 L 477.0 91.0 L 477.0 89.0 L 471.0 77.0 L 458.0 58.0 L 452.0 52.0 L 452.0 51.0 L 438.0 38.0 L 424.0 28.0 L 402.0 17.0 L 393.0 14.0 L 390.0 14.0 L 386.0 12.0 L 378.0 11.0 L 377.0 10.0 L 362.0 9.0 L 361.0 8.0 Z
M 484.0 459.0 L 472.0 444.0 L 465.0 433.0 L 439.0 399.0 L 437.0 395.0 L 411.0 361.0 L 409.0 357.0 L 406.0 356.0 L 322.0 461.0 L 323.0 462.0 L 484.0 462.0 Z" fill="url(#silverGradient)" fill-rule="evenodd"/>
</svg>
