<?xml version="1.0" encoding="UTF-8"?>
<svg xmlns="http://www.w3.org/2000/svg" width="1130" height="347" viewBox="0 0 1130 347" role="img" aria-labelledby="title desc">
  <title id="title">BAIG Advisory full logo</title>
  <desc id="desc">Vector SVG recreation of the BAIG Advisory logo with transparent background.</desc>
  <defs>
    <linearGradient id="silverGradient" x1="0" y1="0" x2="0" y2="1">
      <stop offset="0%" stop-color="#FFFFFF"/>
      <stop offset="28%" stop-color="#D7DBE2"/>
      <stop offset="52%" stop-color="#F4F5F7"/>
      <stop offset="74%" stop-color="#B9BFC8"/>
      <stop offset="100%" stop-color="#8D96A4"/>
    </linearGradient>
  </defs>
  <path d="M 49.0 8.0 L 49.0 277.0 L 52.0 276.0 L 80.0 250.0 L 80.0 170.0 L 81.0 169.0 L 173.0 169.0 L 206.0 139.0 L 206.0 137.0 L 81.0 137.0 L 80.0 136.0 L 80.0 47.0 L 81.0 46.0 L 80.0 41.0 L 81.0 40.0 L 217.0 40.0 L 222.0 41.0 L 239.0 49.0 L 251.0 62.0 L 255.0 70.0 L 258.0 81.0 L 258.0 98.0 L 256.0 106.0 L 249.0 120.0 L 233.0 137.0 L 198.0 169.0 L 87.0 264.0 L 15.0 330.0 L 8.0 338.0 L 88.0 338.0 L 212.0 214.0 L 212.0 212.0 L 204.0 213.0 L 201.0 212.0 L 200.0 210.0 L 245.0 170.0 L 250.0 174.0 L 278.0 212.0 L 341.0 301.0 L 343.0 302.0 L 381.0 301.0 L 269.0 145.0 L 278.0 132.0 L 287.0 114.0 L 291.0 96.0 L 291.0 81.0 L 288.0 65.0 L 281.0 49.0 L 271.0 35.0 L 263.0 27.0 L 248.0 17.0 L 239.0 13.0 L 215.0 8.0 Z
M 529.0 75.0 L 529.0 213.0 L 530.0 214.0 L 600.0 214.0 L 620.0 209.0 L 628.0 204.0 L 635.0 197.0 L 638.0 192.0 L 641.0 181.0 L 641.0 173.0 L 639.0 164.0 L 635.0 156.0 L 628.0 149.0 L 616.0 143.0 L 616.0 141.0 L 620.0 139.0 L 629.0 130.0 L 634.0 117.0 L 633.0 102.0 L 627.0 90.0 L 618.0 82.0 L 602.0 76.0 L 595.0 75.0 Z
M 757.0 75.0 L 696.0 211.0 L 696.0 214.0 L 713.0 214.0 L 715.0 212.0 L 728.0 181.0 L 738.0 179.0 L 772.0 179.0 L 773.0 180.0 L 802.0 179.0 L 817.0 212.0 L 819.0 214.0 L 836.0 214.0 L 836.0 211.0 L 832.0 201.0 L 822.0 181.0 L 819.0 172.0 L 810.0 154.0 L 776.0 76.0 L 762.0 74.0 Z
M 1052.0 73.0 L 1035.0 78.0 L 1026.0 83.0 L 1017.0 90.0 L 1007.0 102.0 L 999.0 117.0 L 996.0 126.0 L 994.0 138.0 L 994.0 154.0 L 996.0 165.0 L 1004.0 184.0 L 1018.0 201.0 L 1028.0 208.0 L 1043.0 214.0 L 1052.0 216.0 L 1075.0 216.0 L 1094.0 211.0 L 1106.0 205.0 L 1121.0 194.0 L 1121.0 138.0 L 1063.0 138.0 L 1062.0 139.0 L 1062.0 155.0 L 1102.0 155.0 L 1103.0 156.0 L 1103.0 186.0 L 1096.0 191.0 L 1081.0 197.0 L 1071.0 199.0 L 1058.0 199.0 L 1048.0 197.0 L 1037.0 192.0 L 1021.0 176.0 L 1015.0 162.0 L 1013.0 151.0 L 1013.0 138.0 L 1015.0 128.0 L 1021.0 114.0 L 1026.0 107.0 L 1033.0 100.0 L 1046.0 93.0 L 1057.0 90.0 L 1076.0 91.0 L 1094.0 98.0 L 1104.0 106.0 L 1106.0 106.0 L 1111.0 101.0 L 1116.0 93.0 L 1104.0 83.0 L 1086.0 75.0 L 1067.0 72.0 Z
M 546.0 155.0 L 548.0 152.0 L 597.0 152.0 L 609.0 155.0 L 613.0 157.0 L 620.0 164.0 L 623.0 172.0 L 622.0 182.0 L 616.0 190.0 L 603.0 196.0 L 597.0 197.0 L 548.0 197.0 L 546.0 195.0 L 547.0 190.0 Z
M 195.0 276.0 L 289.0 276.0 L 266.0 244.0 L 258.0 235.0 L 254.0 228.0 L 243.0 215.0 L 241.0 215.0 Z
M 547.0 94.0 L 548.0 93.0 L 597.0 93.0 L 607.0 97.0 L 613.0 103.0 L 615.0 108.0 L 615.0 120.0 L 612.0 126.0 L 607.0 131.0 L 598.0 135.0 L 593.0 136.0 L 547.0 136.0 L 546.0 135.0 Z
M 902.0 75.0 L 901.0 76.0 L 901.0 212.0 L 902.0 214.0 L 919.0 214.0 L 920.0 213.0 L 920.0 76.0 L 919.0 75.0 Z
M 765.0 99.0 L 767.0 99.0 L 770.0 104.0 L 780.0 129.0 L 794.0 158.0 L 793.0 162.0 L 738.0 162.0 L 737.0 161.0 Z
M 927.0 246.0 L 921.0 248.0 L 912.0 256.0 L 908.0 269.0 L 909.0 276.0 L 912.0 283.0 L 921.0 291.0 L 928.0 293.0 L 935.0 293.0 L 945.0 289.0 L 952.0 281.0 L 954.0 276.0 L 954.0 263.0 L 951.0 256.0 L 945.0 250.0 L 935.0 246.0 Z
M 615.0 247.0 L 614.0 253.0 L 614.0 291.0 L 615.0 292.0 L 637.0 292.0 L 647.0 287.0 L 653.0 280.0 L 655.0 273.0 L 654.0 262.0 L 651.0 256.0 L 644.0 250.0 L 637.0 247.0 Z
M 1000.0 247.0 L 1000.0 292.0 L 1006.0 291.0 L 1006.0 276.0 L 1007.0 275.0 L 1018.0 275.0 L 1031.0 292.0 L 1038.0 292.0 L 1025.0 275.0 L 1026.0 273.0 L 1030.0 272.0 L 1036.0 265.0 L 1036.0 256.0 L 1033.0 251.0 L 1026.0 247.0 Z
M 931.0 251.0 L 937.0 252.0 L 942.0 255.0 L 948.0 264.0 L 948.0 275.0 L 945.0 281.0 L 939.0 286.0 L 933.0 288.0 L 926.0 287.0 L 922.0 285.0 L 918.0 281.0 L 915.0 275.0 L 916.0 261.0 L 922.0 254.0 Z
M 621.0 252.0 L 638.0 253.0 L 646.0 259.0 L 649.0 267.0 L 649.0 272.0 L 647.0 278.0 L 641.0 284.0 L 634.0 287.0 L 621.0 287.0 L 620.0 286.0 L 620.0 253.0 Z
M 547.0 247.0 L 534.0 274.0 L 527.0 292.0 L 532.0 292.0 L 536.0 283.0 L 539.0 280.0 L 561.0 280.0 L 564.0 284.0 L 566.0 291.0 L 573.0 292.0 L 553.0 247.0 Z
M 428.0 73.0 L 428.0 292.0 L 431.0 292.0 L 431.0 73.0 Z
M 845.0 246.0 L 839.0 248.0 L 834.0 253.0 L 833.0 263.0 L 837.0 268.0 L 841.0 270.0 L 856.0 274.0 L 859.0 277.0 L 859.0 283.0 L 855.0 287.0 L 851.0 288.0 L 843.0 287.0 L 835.0 282.0 L 833.0 282.0 L 831.0 286.0 L 838.0 291.0 L 845.0 293.0 L 852.0 293.0 L 860.0 290.0 L 864.0 286.0 L 865.0 276.0 L 862.0 271.0 L 842.0 264.0 L 839.0 261.0 L 838.0 257.0 L 841.0 253.0 L 846.0 251.0 L 854.0 252.0 L 861.0 256.0 L 863.0 254.0 L 863.0 251.0 L 856.0 247.0 Z
M 692.0 247.0 L 710.0 291.0 L 717.0 292.0 L 736.0 247.0 L 729.0 248.0 L 721.0 269.0 L 714.0 282.0 L 712.0 281.0 L 707.0 270.0 L 699.0 248.0 Z
M 1076.0 247.0 L 1094.0 274.0 L 1094.0 292.0 L 1099.0 292.0 L 1099.0 274.0 L 1117.0 249.0 L 1117.0 247.0 L 1111.0 247.0 L 1097.0 268.0 L 1095.0 267.0 L 1083.0 248.0 Z
M 1006.0 253.0 L 1007.0 252.0 L 1026.0 253.0 L 1031.0 259.0 L 1030.0 265.0 L 1027.0 268.0 L 1022.0 270.0 L 1007.0 270.0 L 1006.0 269.0 Z
M 780.0 247.0 L 780.0 292.0 L 785.0 292.0 L 785.0 247.0 Z
M 549.0 256.0 L 552.0 258.0 L 559.0 273.0 L 558.0 275.0 L 542.0 275.0 L 541.0 274.0 L 542.0 269.0 Z" fill="url(#silverGradient)" fill-rule="evenodd"/>
</svg>
